<svg width="48" height="48" viewBox="0 0 48 48" fill="none" xmlns="http://www.w3.org/2000/svg">
<path d="M24 0.219238C10.74 0.219238 0 10.9652 0 24.2192C0 34.8252 6.876 43.8192 16.41 46.9892C17.61 47.2152 18.05 46.4732 18.05 45.8352C18.05 45.2652 18.03 43.7552 18.02 41.7552C11.344 43.2032 9.936 38.5352 9.936 38.5352C8.844 35.7652 7.266 35.0252 7.266 35.0252C5.092 33.5372 7.434 33.5672 7.434 33.5672C9.844 33.7352 11.11 36.0392 11.11 36.0392C13.25 39.7092 16.728 38.6492 18.1 38.0352C18.316 36.4832 18.934 35.4252 19.62 34.8252C14.29 34.2252 8.688 32.1612 8.688 22.9652C8.688 20.3452 9.618 18.2052 11.158 16.5252C10.888 15.9192 10.078 13.4792 11.368 10.1732C11.368 10.1732 13.378 9.52924 17.968 12.6332C19.888 12.0992 21.928 11.8352 23.968 11.8232C26.008 11.8352 28.048 12.0992 29.968 12.6332C34.528 9.52924 36.538 10.1732 36.538 10.1732C37.828 13.4792 37.018 15.9192 36.778 16.5252C38.308 18.2052 39.238 20.3452 39.238 22.9652C39.238 32.1852 33.628 34.2152 28.288 34.8052C29.128 35.5252 29.908 36.9972 29.908 39.2452C29.908 42.4572 29.878 45.0372 29.878 45.8172C29.878 46.4472 30.298 47.1972 31.528 46.9572C41.13 43.8092 48 34.8092 48 24.2192C48 10.9652 37.254 0.219238 24 0.219238Z" fill="#68548E"/>
</svg>
