<svg width="48" height="49" viewBox="0 0 48 49" fill="none" xmlns="http://www.w3.org/2000/svg">
<path d="M24 0.625C17.48 0.625 16.666 0.655 14.106 0.769C11.55 0.889 9.81 1.291 8.28 1.885C6.702 2.497 5.362 3.319 4.028 4.653C2.694 5.987 1.87 7.325 1.26 8.905C0.666 10.435 0.262 12.175 0.144 14.731C0.024 17.291 0 18.105 0 24.625C0 31.145 0.03 31.959 0.144 34.519C0.264 37.073 0.666 38.815 1.26 40.345C1.86258 41.9467 2.80719 43.3977 4.028 44.597C5.22655 45.8187 6.6778 46.7634 8.28 47.365C9.812 47.957 11.552 48.363 14.106 48.481C16.666 48.601 17.48 48.625 24 48.625C30.52 48.625 31.334 48.595 33.894 48.481C36.448 48.361 38.19 47.957 39.72 47.365C41.3213 46.7617 42.7722 45.8172 43.972 44.597C45.1941 43.3988 46.1389 41.9474 46.74 40.345C47.332 38.815 47.738 37.073 47.856 34.519C47.976 31.959 48 31.145 48 24.625C48 18.105 47.97 17.291 47.856 14.731C47.736 12.177 47.332 10.433 46.74 8.905C46.1371 7.30344 45.1926 5.85246 43.972 4.653C42.7743 3.43028 41.3228 2.48538 39.72 1.885C38.19 1.291 36.448 0.887 33.894 0.769C31.334 0.649 30.52 0.625 24 0.625ZM24 4.945C30.406 4.945 31.17 4.977 33.7 5.087C36.04 5.197 37.31 5.585 38.154 5.917C39.278 6.351 40.074 6.871 40.918 7.709C41.756 8.549 42.276 9.347 42.71 10.471C43.038 11.315 43.43 12.585 43.536 14.925C43.65 17.457 43.676 18.217 43.676 24.625C43.676 31.033 43.646 31.795 43.528 34.325C43.406 36.665 43.016 37.935 42.686 38.779C42.2956 39.8205 41.6819 40.7639 40.888 41.543C40.1123 42.3376 39.1695 42.9497 38.128 43.335C37.288 43.663 35.998 44.055 33.658 44.161C31.11 44.275 30.36 44.301 23.94 44.301C17.518 44.301 16.768 44.271 14.222 44.153C11.88 44.031 10.59 43.641 9.75 43.311C8.70781 42.9254 7.76535 42.311 6.992 41.513C6.18916 40.7425 5.57343 39.7984 5.192 38.753C4.862 37.913 4.474 36.623 4.352 34.283C4.262 31.763 4.23 30.985 4.23 24.595C4.23 18.203 4.262 17.423 4.352 14.873C4.474 12.533 4.862 11.245 5.192 10.405C5.612 9.265 6.15 8.485 6.992 7.643C7.83 6.805 8.612 6.265 9.75 5.847C10.59 5.515 11.852 5.125 14.192 5.005C16.742 4.915 17.492 4.885 23.91 4.885L24 4.945ZM24 12.301C22.3816 12.301 20.779 12.6198 19.2838 13.2391C17.7886 13.8584 16.43 14.7662 15.2856 15.9106C14.1412 17.055 13.2334 18.4136 12.6141 19.9088C11.9948 21.404 11.676 23.0066 11.676 24.625C11.676 26.2434 11.9948 27.846 12.6141 29.3412C13.2334 30.8364 14.1412 32.195 15.2856 33.3394C16.43 34.4838 17.7886 35.3916 19.2838 36.0109C20.779 36.6302 22.3816 36.949 24 36.949C27.2685 36.949 30.4032 35.6506 32.7144 33.3394C35.0256 31.0282 36.324 27.8935 36.324 24.625C36.324 21.3565 35.0256 18.2218 32.7144 15.9106C30.4032 13.5994 27.2685 12.301 24 12.301ZM24 32.625C19.58 32.625 16 29.045 16 24.625C16 20.205 19.58 16.625 24 16.625C28.42 16.625 32 20.205 32 24.625C32 29.045 28.42 32.625 24 32.625ZM39.692 11.815C39.6642 12.5602 39.3486 13.2657 38.8116 13.7831C38.2745 14.3006 37.5578 14.5897 36.812 14.5897C36.0662 14.5897 35.3495 14.3006 34.8124 13.7831C34.2754 13.2657 33.9598 12.5602 33.932 11.815C33.932 11.0512 34.2354 10.3186 34.7755 9.77853C35.3156 9.23843 36.0482 8.935 36.812 8.935C37.5758 8.935 38.3084 9.23843 38.8485 9.77853C39.3886 10.3186 39.692 11.0512 39.692 11.815Z" fill="#68548E"/>
</svg>
