<svg width="48" height="49" viewBox="0 0 48 49" fill="none" xmlns="http://www.w3.org/2000/svg">
<path d="M40.894 41.529H33.786V30.391C33.786 27.735 33.732 24.317 30.082 24.317C26.376 24.317 25.81 27.207 25.81 30.195V41.529H18.702V18.625H25.53V21.747H25.622C26.576 19.947 28.896 18.047 32.362 18.047C39.564 18.047 40.896 22.787 40.896 28.957L40.894 41.529ZM10.674 15.491C10.1318 15.4913 9.59478 15.3846 9.09381 15.1771C8.59284 14.9696 8.13771 14.6653 7.75447 14.2817C7.37124 13.8981 7.06741 13.4427 6.86039 12.9415C6.65337 12.4403 6.54721 11.9032 6.548 11.361C6.5484 10.5446 6.79089 9.74657 7.2448 9.06794C7.69872 8.38932 8.34369 7.86053 9.09813 7.54846C9.85257 7.23639 10.6826 7.15504 11.4833 7.31471C12.284 7.47438 13.0193 7.86789 13.5963 8.44548C14.1734 9.02307 14.5662 9.7588 14.7251 10.5596C14.884 11.3605 14.8018 12.1904 14.489 12.9446C14.1762 13.6987 13.6468 14.3432 12.9677 14.7964C12.2887 15.2497 11.4904 15.4914 10.674 15.491ZM14.238 41.529H7.11V18.625H14.238V41.529ZM44.45 0.625H3.542C1.584 0.625 0 2.173 0 4.083V45.167C0 47.079 1.584 48.625 3.542 48.625H44.444C46.4 48.625 48 47.079 48 45.167V4.083C48 2.173 46.4 0.625 44.444 0.625H44.45Z" fill="#68548E"/>
</svg>
