<svg width="48" height="56" viewBox="0 0 48 56" fill="none" xmlns="http://www.w3.org/2000/svg">
<path d="M25.2096 0.0460412C28.2253 0 31.218 0.0230206 34.2107 0C34.3948 3.52215 35.661 7.11336 38.2393 9.59958C40.8176 12.1549 44.4548 13.3289 48 13.7203V22.9976C44.685 22.8825 41.3471 22.1918 38.3314 20.7646C37.0192 20.166 35.7991 19.4064 34.602 18.6237C34.579 25.3457 34.625 32.0677 34.556 38.7667C34.3718 41.9895 33.3129 45.1894 31.4482 47.8368C28.4325 52.2567 23.2068 55.1343 17.843 55.2264C14.5511 55.4105 11.2591 54.5127 8.45063 52.8553C3.80047 50.1158 0.531549 45.0973 0.0481169 39.7105C0.00207575 38.5595 -0.0209448 37.4085 0.0250964 36.2804C0.439467 31.9065 2.6034 27.7168 5.96441 24.8622C9.78583 21.5473 15.1266 19.9588 20.1221 20.9027C20.1681 24.3097 20.03 27.7168 20.03 31.1238C17.7509 30.3872 15.0806 30.5944 13.0778 31.9756C11.6275 32.9194 10.5225 34.3697 9.94697 36.0042C9.46354 37.1782 9.60166 38.4674 9.62468 39.7105C10.1772 43.4859 13.8144 46.6627 17.6819 46.3174C20.2602 46.2944 22.7234 44.7981 24.0586 42.6111C24.496 41.8514 24.9794 41.0687 25.0024 40.1709C25.2326 36.0502 25.1406 31.9526 25.1636 27.8319C25.1866 18.5546 25.1406 9.30032 25.2096 0.0460412Z" fill="#68548E"/>
</svg>
