<svg width="48" height="35" viewBox="0 0 48 35" fill="none" xmlns="http://www.w3.org/2000/svg">
<path d="M46.9979 6.03152C46.7197 5.03467 46.189 4.12645 45.4572 3.39464C44.7254 2.66282 43.8172 2.13217 42.8203 1.85396C39.079 0.851591 24.0214 0.851591 24.0214 0.851591C24.0214 0.851591 9.00178 0.831584 5.22237 1.85396C4.22553 2.13217 3.3173 2.66282 2.58549 3.39464C1.85368 4.12645 1.32303 5.03467 1.04482 6.03152C0.335598 9.86196 -0.0140521 13.7503 0.000432145 17.6458C-0.011314 21.5267 0.338325 25.4001 1.04482 29.2161C1.32303 30.213 1.85368 31.1212 2.58549 31.853C3.3173 32.5848 4.22553 33.1155 5.22237 33.3937C8.95976 34.3981 24.0214 34.3981 24.0214 34.3981C24.0214 34.3981 39.0389 34.3981 42.8203 33.3937C43.8172 33.1155 44.7254 32.5848 45.4572 31.853C46.189 31.1212 46.7197 30.213 46.9979 29.2161C47.6896 25.3988 48.0245 21.5253 47.9983 17.6458C48.0273 13.7517 47.6924 9.86335 46.9979 6.03152ZM19.2156 24.8305V10.4392L31.7482 17.6458L19.2156 24.8305Z" fill="#68548E"/>
</svg>
